# xmcd CD database file
#
# Track frame offsets:
#	150
#	19689
#	38382
#	60239
#	81569
#
# Disc length: 1301 seconds
#
# Revision: 0
# Processed by: cddbd v1.5.1PL0 Copyright (c) Steve Scherf et al.
# Submitted via: CDex 1.60beta1
#
DISCID=2e051305
DTITLE=Identity - Sanctuary
DYEAR=1900
DGENRE=未分類 (日本)
TTITLE0=飛べない小鳥
TTITLE1=PP 〜pianissimo〜
TTITLE2=たいせつなもの
TTITLE3=星の涙
TTITLE4=蒼い空の道標
EXTD=
EXTT0=
EXTT1=
EXTT2=
EXTT3=
EXTT4=
PLAYORDER=
